<svg width="18" height="18" viewBox="0 0 18 18" fill="none" xmlns="http://www.w3.org/2000/svg">
<path fill-rule="evenodd" clip-rule="evenodd" d="M8.99994 1.5C7.37897 1.50062 5.80183 2.02639 4.50475 2.99856C3.20766 3.97072 2.26045 5.33696 1.80498 6.89262C1.34952 8.44828 1.41031 10.1096 1.97827 11.6278C2.54622 13.1461 3.59076 14.4394 4.95543 15.3142C6.3201 16.1889 7.93145 16.598 9.54813 16.4801C11.1648 16.3623 12.6998 15.7238 13.9232 14.6604C15.1465 13.597 15.9925 12.1658 16.3342 10.5813C16.676 8.99677 16.4952 7.34416 15.8189 5.871C15.7453 5.69189 15.7438 5.49126 15.8148 5.31108C15.8858 5.13091 16.0237 4.98516 16.1996 4.90435C16.3756 4.82353 16.576 4.81391 16.7589 4.8775C16.9418 4.94109 17.093 5.07295 17.1809 5.2455C17.9924 7.01338 18.2093 8.9966 17.799 10.8981C17.3888 12.7996 16.3735 14.5169 14.9053 15.793C13.4371 17.069 11.595 17.835 9.6549 17.9762C7.7148 18.1175 5.78117 17.6263 4.14364 16.5764C2.50611 15.5264 1.25283 13.9742 0.571528 12.1522C-0.10977 10.3301 -0.182411 8.33643 0.364486 6.46967C0.911383 4.6029 2.04838 2.96357 3.60516 1.79723C5.16194 0.630892 7.05471 0.000330672 8.99994 0V1.5Z" fill="#7749F8"/>
</svg>
